HIERARCHY
ROOT Hips
{
	OFFSET 0.000000 0.000000 0.000000
	CHANNELS 6 Xposition Yposition Zposition Zrotation Yrotation Xrotation 
	JOINT LowerBack
	{
		OFFSET 0.000000 0.000000 0.000000
		CHANNELS 3 Zrotation Yrotation Xrotation
		JOINT Spine
		{
			OFFSET 0.028270 2.035590 -0.193380
			CHANNELS 3 Zrotation Yrotation Xrotation
			JOINT Spine1
			{
				OFFSET 0.056720 2.048850 -0.042750
				CHANNELS 3 Zrotation Yrotation Xrotation
				JOINT Neck
				{
					OFFSET 0.000000 0.000000 0.000000
					CHANNELS 3 Zrotation Yrotation Xrotation
					JOINT Neck1
					{
						OFFSET -0.054170 1.746240 0.172020
						CHANNELS 3 Zrotation Yrotation Xrotation
						JOINT Head
						{
							OFFSET 0.104070 1.761360 -0.123970
							CHANNELS 3 Zrotation Yrotation Xrotation
							End Site
							{
								OFFSET 0.000000 0.000000 0.000000
							}
						}
					}
				}
				JOINT LeftShoulder
				{
					OFFSET 0.000000 0.000000 0.000000
					CHANNELS 3 Zrotation Yrotation Xrotation
					JOINT LeftArm
					{
						OFFSET 3.362410 1.200890 -0.311210
						CHANNELS 3 Zrotation Yrotation Xrotation
						JOINT LeftForeArm
						{
							OFFSET 4.983000 -0.000000 -0.000000
							CHANNELS 3 Zrotation Yrotation Xrotation
							JOINT LeftHand
							{
								OFFSET 3.483560 -0.000000 -0.000000
								CHANNELS 3 Zrotation Yrotation Xrotation
								JOINT LeftFingerBase
								{
									OFFSET 0.000000 0.000000 0.000000
									CHANNELS 3 Zrotation Yrotation Xrotation
									JOINT LeftHandIndex1
									{
										OFFSET 0.715260 -0.000000 -0.000000
										CHANNELS 3 Zrotation Yrotation Xrotation
										End Site
										{
											OFFSET 0.000000 0.000000 0.000000
										}
									}
								}
								JOINT LThumb
								{
									OFFSET 0.000000 0.000000 0.000000
									CHANNELS 3 Zrotation Yrotation Xrotation
									End Site
									{
										OFFSET 0.000000 0.000000 0.000000
									}
								}
							}
						}
					}
				}
				JOINT RightShoulder
				{
					OFFSET 0.000000 0.000000 0.000000
					CHANNELS 3 Zrotation Yrotation Xrotation
					JOINT RightArm
					{
						OFFSET -3.136600 1.374050 -0.404650
						CHANNELS 3 Zrotation Yrotation Xrotation
						JOINT RightForeArm
						{
							OFFSET -5.241900 -0.000000 -0.000000
							CHANNELS 3 Zrotation Yrotation Xrotation
							JOINT RightHand
							{
								OFFSET -3.444170 -0.000000 -0.000000
								CHANNELS 3 Zrotation Yrotation Xrotation
								JOINT RightFingerBase
								{
									OFFSET 0.000000 0.000000 0.000000
									CHANNELS 3 Zrotation Yrotation Xrotation
									JOINT RightHandIndex1
									{
										OFFSET -0.622530 -0.000000 -0.000000
										CHANNELS 3 Zrotation Yrotation Xrotation
										End Site
										{
											OFFSET 0.000000 0.000000 0.000000
										}
									}
								}
								JOINT RThumb
								{
									OFFSET 0.000000 0.000000 0.000000
									CHANNELS 3 Zrotation Yrotation Xrotation
									End Site
									{
										OFFSET 0.000000 0.000000 0.000000
									}
								}
							}
						}
					}
				}
			}
		}
	}
}
}
MOTION
Frames: 7
Frame Time: 0.008333
2.376461 16.326295 0.486758 169.104927 -60.504810 -152.112624 -4.250413 -2.056034 -4.199700 -1.212785 -1.843318 -3.933178 -5.271278 -1.835356 -1.456643 10.344941 -5.440982 -4.265300 -2.430661 -0.223493 0.866172 0.000000 0.000000 0.000000 6.151438 8.033731 2.889162 -48.858372 19.715740 -14.791900 -178.982522 -63.838601 179.960075 7.489817 -15.242425 -1.074764 -0.175912 0.736419 -0.000000 0.000000 0.000000 0.000000 0.000000 0.000000 0.000000 4.123550 0.848258 -3.755973 64.659887 53.662857 7.710863 -179.011086 56.920343 179.671117 -26.963574 17.785036 -4.708253 0.645292 -1.240020 -0.000000 0.000000 0.000000 0.000000 0.000000 0.000000 0.000000 
2.320268 16.382228 0.493137 171.650107 -57.433633 -153.564953 -3.243809 -1.883241 -4.768043 -1.020045 -1.780391 -3.945190 -5.245748 -1.776919 -0.889948 10.683149 -6.062977 -5.107176 -2.269939 -0.202160 0.646126 0.000000 0.000000 0.000000 6.306193 9.456346 3.059674 -47.600794 23.148122 -14.083511 -178.888704 -65.350559 179.975920 6.188585 -15.203974 -0.883048 -0.154727 0.677704 0.000000 0.000000 0.000000 0.000000 0.000000 0.000000 0.000000 4.367755 0.530315 -3.599586 62.322628 54.515474 7.103229 -178.985992 57.076703 179.672574 -27.093654 17.252418 -4.592444 0.654088 -1.219370 -0.000000 0.000000 0.000000 0.000000 0.000000 0.000000 0.000000 
2.266022 16.439414 0.498955 173.908753 -54.436749 -154.696528 -2.202077 -1.681308 -5.257587 -0.817213 -1.688356 -3.950486 -5.206982 -1.687382 -0.379394 11.005164 -6.672130 -5.834271 -2.118408 -0.182380 0.455080 0.000000 0.000000 0.000000 6.720418 10.606783 3.215323 -46.530834 26.183633 -13.465255 -178.830099 -66.854721 179.988948 4.854749 -15.054129 -0.684831 -0.134219 0.626130 -0.000000 0.000000 0.000000 0.000000 0.000000 0.000000 0.000000 4.636469 0.146929 -3.425076 59.912102 55.346146 6.400655 -178.921604 57.270495 179.672830 -27.242874 16.791298 -4.496672 0.658696 -1.200038 -0.000000 0.000000 0.000000 0.000000 0.000000 0.000000 0.000000 
2.215459 16.496974 0.503622 175.912679 -51.554865 -155.561413 -1.159807 -1.467667 -5.653704 -0.611924 -1.580866 -3.946878 -5.164444 -1.580603 0.068409 11.307494 -7.270242 -6.449226 -1.981082 -0.164611 0.292032 0.000000 0.000000 0.000000 7.378909 11.442591 3.371524 -45.549625 28.890997 -13.022319 -178.799803 -68.258756 179.999096 3.619540 -14.803002 -0.502486 -0.117231 0.583157 -0.000000 0.000000 0.000000 0.000000 0.000000 0.000000 0.000000 4.930661 -0.289092 -3.238540 57.499487 56.133332 5.636691 -178.833839 57.500195 179.672165 -27.409660 16.397245 -4.419622 0.660267 -1.182346 -0.000000 0.000000 0.000000 0.000000 0.000000 0.000000 0.000000 
2.170307 16.554055 0.506520 177.677308 -48.827663 -156.198584 -0.155794 -1.262228 -5.949324 -0.412719 -1.474062 -3.932060 -5.126409 -1.473034 0.454617 11.594479 -7.858983 -6.961364 -1.860491 -0.149034 0.154372 0.000000 0.000000 0.000000 8.254965 11.956037 3.539178 -44.553099 31.309062 -12.795896 -178.789171 -69.495690 -179.993334 2.586181 -14.466923 -0.352500 -0.105583 0.549743 -0.000000 0.000000 0.000000 0.000000 0.000000 0.000000 0.000000 5.255291 -0.767003 -3.047126 55.156093 56.864002 4.851700 -178.737628 57.764933 179.670953 -27.582442 16.063189 -4.357977 0.659665 -1.166403 -0.000000 0.000000 0.000000 0.000000 0.000000 0.000000 0.000000 
2.131831 16.609792 0.507310 179.220392 -46.293645 -156.646792 0.777139 -1.083941 -6.145779 -0.226892 -1.383995 -3.904162 -5.099440 -1.381069 0.787318 11.873806 -8.439769 -7.384527 -1.756936 -0.135577 0.038490 0.000000 0.000000 0.000000 9.314153 12.170600 3.724621 -43.439254 33.442273 -12.782616 -178.790678 -70.536201 -179.987921 1.828969 -14.068843 -0.244868 -0.100350 0.526297 -0.000000 0.000000 0.000000 0.000000 0.000000 0.000000 0.000000 5.613994 -1.280529 -2.859087 52.947524 57.532725 4.087377 -178.644686 58.059994 179.669594 -27.741626 15.783482 -4.307524 0.657368 -1.152238 -0.000000 0.000000 0.000000 0.000000 0.000000 0.000000 0.000000 
2.101368 16.663479 0.505676 -179.460376 -43.988544 -156.928764 1.598679 -0.951154 -6.253197 -0.063450 -1.326007 -3.862083 -5.088247 -1.320440 1.079153 12.156843 -9.014693 -7.734423 -1.670460 -0.124098 -0.059614 0.000000 0.000000 0.000000 10.526008 12.125848 3.930330 -42.115834 35.264208 -12.947107 -178.799323 -71.379906 -179.984312 1.389600 -13.641677 -0.182990 -0.101903 0.512956 -0.000000 0.000000 0.000000 0.000000 0.000000 0.000000 0.000000 6.018526 -1.829553 -2.680052 50.925655 58.143635 3.383104 -178.564615 58.381127 179.668510 -27.862692 15.554481 -4.263655 0.653583 -1.139853 -0.000000 0.000000 0.000000 0.000000 0.000000 0.000000 0.000000 
